<svg width="13" height="12" viewBox="0 0 13 12" fill="none" xmlns="http://www.w3.org/2000/svg">
<rect x="0.953125" y="11.5" width="11" height="11" rx="2.5" transform="rotate(-90 0.953125 11.5)" stroke="#052224"/>
<path d="M9.95312 3C9.95312 2.72386 9.72927 2.5 9.45312 2.5L4.95312 2.5C4.67698 2.5 4.45312 2.72386 4.45312 3C4.45312 3.27614 4.67698 3.5 4.95312 3.5L8.95312 3.5L8.95312 7.5C8.95312 7.77614 9.17698 8 9.45312 8C9.72927 8 9.95312 7.77614 9.95312 7.5L9.95312 3ZM3.80668 9.35355L9.80668 3.35355L9.09957 2.64645L3.09957 8.64645L3.80668 9.35355Z" fill="#052224"/>
</svg>
