<svg width="30" height="27" viewBox="0 0 30 27" fill="none" xmlns="http://www.w3.org/2000/svg">
<path d="M4.499 10.863H25.497M5.41265 1V6.07252M11.3135 1V6.07252M18.6865 1V6.07252M24.5873 1V6.07252M2.14107 3.92103H27.8589C28.1616 3.92103 28.4518 4.04243 28.6658 4.25853C28.8798 4.47463 29 4.76772 29 5.07333V23.639C29 24.2652 28.7537 24.8657 28.3152 25.3085C27.8768 25.7513 27.2821 26 26.662 26H3.33799C2.71791 26 2.12324 25.7513 1.68478 25.3085C1.24632 24.8657 1 24.2652 1 23.639V5.07333C1 4.76772 1.12022 4.47463 1.33421 4.25853C1.5482 4.04243 1.83844 3.92103 2.14107 3.92103Z" stroke="#093030" stroke-width="1.27712" stroke-linecap="round" stroke-linejoin="round"/>
</svg>
