<svg width="18" height="39" viewBox="0 0 18 39" fill="none" xmlns="http://www.w3.org/2000/svg">
<path d="M1 26.667C1 28.6287 1.8143 30.51 3.26376 31.8972C4.71322 33.2843 6.67909 34.0637 8.72893 34.0637M8.72893 34.0637C10.7788 34.0637 12.7447 33.2843 14.1942 31.8972C15.6436 30.51 16.4579 28.6287 16.4579 26.667C16.4825 25.5232 16.2125 24.3912 15.6718 23.3709C15.1312 22.3506 14.3363 21.4733 13.3576 20.8165C10.3096 19.053 6.10021 19.5795 3.42782 17.1975C2.66837 16.5165 2.06154 15.6949 1.64418 14.7826C1.22681 13.8702 1.00765 12.8862 1 11.8903C0.999999 9.92777 1.81401 8.0455 3.26322 6.65702C4.71243 5.26854 6.67828 4.48744 8.72893 4.48522C10.7796 4.48744 12.7454 5.26854 14.1946 6.65702C15.6439 8.0455 16.4579 9.92777 16.4579 11.8903M8.72893 34.0637L8.72894 37.5405M8.72894 1V4.47687" stroke="#093030" stroke-width="2" stroke-linecap="round" stroke-linejoin="round"/>
</svg>
