<svg width="18" height="39" viewBox="0 0 18 39" fill="none" xmlns="http://www.w3.org/2000/svg">
<path d="M1.45313 26.667C1.45313 28.6287 2.26742 30.51 3.71688 31.8972C5.16634 33.2843 7.13221 34.0637 9.18206 34.0637M9.18206 34.0637C11.2319 34.0637 13.1978 33.2843 14.6473 31.8972C16.0967 30.51 16.911 28.6287 16.911 26.667C16.9356 25.5232 16.6657 24.3912 16.125 23.3709C15.5843 22.3506 14.7894 21.4733 13.8107 20.8165C10.7628 19.053 6.55333 19.5795 3.88095 17.1975C3.12149 16.5165 2.51467 15.6949 2.0973 14.7826C1.67993 13.8702 1.46077 12.8862 1.45313 11.8903C1.45312 9.92777 2.26714 8.0455 3.71635 6.65702C5.16556 5.26854 7.13141 4.48744 9.18206 4.48522C11.2327 4.48744 13.1986 5.26854 14.6478 6.65702C16.097 8.0455 16.911 9.92777 16.911 11.8903M9.18206 34.0637L9.18207 37.5405M9.18207 1V4.47687" stroke="#F1FFF3" stroke-width="2" stroke-linecap="round" stroke-linejoin="round"/>
</svg>
