<svg width="29" height="25" viewBox="0 0 29 25" fill="none" xmlns="http://www.w3.org/2000/svg">
<g clip-path="url(#clip0_9044_2254)">
<path d="M11.8382 17.8938H17.5027C18.0235 17.8923 18.5226 17.6848 18.8909 17.3165C19.2591 16.9482 19.4667 16.4491 19.4682 15.9283C19.4652 15.4084 19.2571 14.9108 18.8889 14.5437C18.5208 14.1767 18.0225 13.9699 17.5027 13.9684H13.9114C13.1055 13.9588 12.3055 13.829 11.538 13.5832C10.1162 13.2773 7.81648 13.2603 6.76289 15.9283H4.49711M19.4399 15.9283L24.5379 12.9261C24.9828 12.6566 25.5165 12.5743 26.0219 12.6975C26.5273 12.8207 26.9632 13.1391 27.2342 13.5832C27.5027 14.0278 27.585 14.5604 27.463 15.0653C27.3411 15.5702 27.0247 16.0065 26.5828 16.2795L19.9157 21.2982C18.7271 22.1927 17.2796 22.6758 15.792 22.6746H4.46309M17.548 7.04074L16.1601 8.43421C16.1517 8.44295 16.1416 8.4499 16.1304 8.45464C16.1192 8.45939 16.1072 8.4618 16.095 8.4618C16.0828 8.4618 16.0709 8.45939 16.0597 8.45464C16.0485 8.4499 16.0383 8.44295 16.0299 8.43421L15.1745 7.03507H11.4361C11.1073 7.89047 10.5269 8.62611 9.77144 9.14489C9.01602 9.66368 8.12114 9.94123 7.20473 9.94094C6.00289 9.94094 4.85019 9.46351 4.00036 8.61368C3.15053 7.76385 2.67317 6.61122 2.67317 5.40937C2.67317 4.20753 3.15053 3.0549 4.00036 2.20507C4.85019 1.35524 6.00289 0.877809 7.20473 0.877809C8.12047 0.877079 9.01485 1.15382 9.7702 1.67154C10.5255 2.18926 11.1064 2.92366 11.4361 3.77801H19.7685L21.8983 5.58497L19.0661 8.51349L17.548 7.06906M4.47443 14.9257C4.47443 14.8445 4.44218 14.7667 4.38481 14.7094C4.32745 14.652 4.24965 14.6198 4.16852 14.6198H1.18334C1.10222 14.6198 1.02442 14.652 0.967055 14.7094C0.909691 14.7667 0.877441 14.8445 0.877441 14.9257V23.6659C0.877441 23.747 0.909691 23.8248 0.967055 23.8822C1.02442 23.9396 1.10222 23.9718 1.18334 23.9718H4.16852C4.24965 23.9718 4.32745 23.9396 4.38481 23.8822C4.44218 23.8248 4.47443 23.747 4.47443 23.6659V14.9257Z" stroke="#093030" stroke-width="1.69934" stroke-linecap="round" stroke-linejoin="round"/>
<path d="M5.98707 6.34408C6.66281 6.34408 7.21059 5.79629 7.21059 5.12056C7.21059 4.44482 6.66281 3.89703 5.98707 3.89703C5.31134 3.89703 4.76355 4.44482 4.76355 5.12056C4.76355 5.79629 5.31134 6.34408 5.98707 6.34408Z" fill="#093030"/>
</g>
<defs>
<clipPath id="clip0_9044_2254">
<rect width="28.3733" height="24.8216" fill="white"/>
</clipPath>
</defs>
</svg>
