<svg width="151" height="131" viewBox="0 0 151 131" fill="none" xmlns="http://www.w3.org/2000/svg">
<path d="M67.1708 25.125H100.728C102.143 25.125 103.533 25.2297 104.896 25.3344C104.896 25.2558 104.922 25.2035 104.922 25.125C104.922 11.2539 93.6493 -2.47955e-05 79.7546 -2.47955e-05C65.86 -2.47955e-05 54.587 11.2539 54.587 25.125C54.587 25.6746 54.7181 26.198 54.7443 26.7476C58.7291 25.7269 62.8713 25.125 67.1708 25.125Z" fill="#FFEA00"/>
<path d="M146.805 55.1273H139.072C136.765 49.8929 133.409 45.2605 129.267 41.3871L134.222 21.6273H125.832C118.125 21.6273 111.309 25.1605 106.694 30.6043C104.702 30.3164 90.4995 30.0023 88.4284 30.0023V53.0023H84.5V30.0023C29 30.6043 29.9069 44.3969 26.0007 63.5023H14.6752C10.7952 63.5023 7.72791 59.9691 8.5144 55.9648C9.09116 52.9812 11.8963 50.9398 14.9374 50.9398H15.1996C16.0647 50.9398 16.7725 50.2332 16.7725 49.3695V44.1351C16.7725 43.2715 16.0647 42.5648 15.1996 42.5648C7.72791 42.5648 1.06897 47.9039 0.125187 55.2844C-1.02833 64.2351 5.9452 71.8773 14.6752 71.8773H25.1618C25.1618 85.539 31.8207 97.5519 41.9402 105.194V126.315C41.9402 128.618 43.8278 130.502 46.1348 130.502H62.9132C65.2203 130.502 67.1078 128.618 67.1078 126.315V113.752H100.665V126.315C100.665 128.618 102.552 130.502 104.859 130.502H121.638C123.945 130.502 125.832 128.618 125.832 126.315V105.194C128.926 102.865 131.679 100.117 134.038 97.0023H146.805C149.112 97.0023 151 95.1179 151 92.8148V59.3148C151 57.0117 149.112 55.1273 146.805 55.1273ZM113.249 71.8773C110.941 71.8773 109.054 69.9929 109.054 67.6898C109.054 65.3867 110.941 63.5023 113.249 63.5023C115.556 63.5023 117.443 65.3867 117.443 67.6898C117.443 69.9929 115.556 71.8773 113.249 71.8773Z" fill="#FF93BE"/>
</svg>
